<svg id="Layer_1" data-name="Layer 1" xmlns="http://www.w3.org/2000/svg" viewBox="0 0 85 85"><defs><style>.cls-1{fill:#fda428;}</style></defs><path class="cls-1" d="M41.31,3.37a1.94,1.94,0,0,1,2.42,0c2.94,2.1,5.88,4.19,8.81,6.3,4.61,3.33,9.23,6.64,13.81,10a4,4,0,0,1,1,5.59,4,4,0,0,1-5.73.91l-1.24-.81v4.71c2.82,0,5.53.08,8.23,0a6.78,6.78,0,0,1,4.73,1.51c2.58,2,5.3,3.83,7.93,5.77,1.12.83,3.25,2.64,3.25,2.64v2.12l-4.27,2V61.89c0,.41.14.91-.05,1.19A2.57,2.57,0,0,1,79,64.23c-.27.07-.83-.66-1.08-1.13-.18-.31,0-.79,0-1.19V45.13c0-.53-.06-1.06-.08-1.61H60.38V73.88H77.83V69.25c0-.86.28-1.68,1.22-1.47a2.09,2.09,0,0,1,1.18,1.52,41.47,41.47,0,0,1,.06,4.62,4.65,4.65,0,0,1,4.27,3v2.42c-1.07,2-2.7,2.77-5,2.76q-37-.09-74.1,0c-.4,0-.8,0-1.21,0A3.89,3.89,0,0,1,.49,78.68a4,4,0,0,1,2.89-4.53c.42-.11.86-.19,1.36-.3,0-6,0-11.87,0-17.76,0-.88,0-1.86,1.18-1.91s1.28,1,1.28,1.92V73.91H24.65V43.54H7.19c0,1.87,0,3.63,0,5.39,0,.93-.09,1.86-1.25,1.84s-1.23-1-1.22-1.88c0-1.79,0-3.58,0-5.39-.49,0-.74-.09-1-.08-1.39.06-2.72-.1-3.19-1.65S1,39.25,2.2,38.4c3-2.1,6-4.2,8.93-6.48A8,8,0,0,1,17,30c2.54.15,5.09,0,7.67,0V25.36l-1.24.8a4,4,0,0,1-5.74-.87,3.91,3.91,0,0,1,1-5.6C26.19,14.22,33.75,8.81,41.31,3.37Zm-7,55.83a2.25,2.25,0,0,0-.51-.11c-.94,0-1.84-.17-1.75-1.33s1-1.15,2-1.14c5.59,0,11.18,0,16.77,0,1,0,2.13-.13,2.16,1.24s-1.1,1.2-2,1.26c-.08,0-.16.1-.26.18V73.91h7.06c0-.36.08-.65.08-.94q0-24.26,0-48.52a2.46,2.46,0,0,0-.92-1.68c-4.46-3.3-9-6.49-13.44-9.79a1.37,1.37,0,0,0-1.95.07c-4.35,3.18-8.7,6.36-13.1,9.46A2.66,2.66,0,0,0,27.14,25c0,15.77,0,31.54,0,47.31V73.9h7.17Zm8.19,17.3H5.62c-.45,0-1-.15-1.33.06C3.75,76.88,3,77.47,3,77.9s.69,1.16,1.19,1.62c.2.18.68.06,1,.06H79.78c.35,0,.83.12,1-.06.5-.46,1.18-1,1.22-1.6s-.74-1-1.27-1.36c-.34-.2-.89-.06-1.34-.06ZM65.59,22.57a9.83,9.83,0,0,0-1.3-1.33c-6.71-4.88-13.47-9.72-20.17-14.63a2.32,2.32,0,0,0-3.21,0c-6.7,4.91-13.45,9.75-20.18,14.62-.33.23-.82.45-.9.76-.16.62-.34,1.49,0,1.89s1.2.45,1.82.43c.38,0,.76-.46,1.12-.73,6.08-4.39,12.18-8.76,18.22-13.2a2.23,2.23,0,0,1,3.08,0c6,4.45,12.14,8.82,18.22,13.22a7.35,7.35,0,0,0,1.26.82C64.54,24.83,65.62,24.07,65.59,22.57ZM48,59.16H37V73.9H48ZM3.1,40.83H24.59V32.57c-3.23,0-6.35,0-9.47,0a1.81,1.81,0,0,0-1,.28C10.55,35.44,7,38,3.1,40.83ZM82,40.89c-4-2.87-7.53-5.46-11.11-8a1.09,1.09,0,0,0-.54-.24c-3.3,0-6.6,0-9.9,0v8.3Z"/><path class="cls-1" d="M16.64,61.36c1,0,2,0,3,0a2.32,2.32,0,0,1,2.53,2.4c.06,1.41.07,2.82,0,4.23a2.41,2.41,0,0,1-2.54,2.44c-2,.06-4,.06-6,0A2.4,2.4,0,0,1,11,67.76c0-1.36,0-2.72,0-4.07a2.23,2.23,0,0,1,2.29-2.31c1.1-.05,2.21,0,3.32,0Zm3,2.55H13.56v4h6.09Z"/><path class="cls-1" d="M16.65,57c-1.11,0-2.22,0-3.32,0A2.21,2.21,0,0,1,11,54.66c-.06-1.46,0-2.92,0-4.38a2.23,2.23,0,0,1,2.27-2.35c2.16-.11,4.33-.09,6.49,0a2.4,2.4,0,0,1,2.41,2.57c.05,1.3,0,2.61,0,3.92A2.41,2.41,0,0,1,19.52,57c-1,0-1.92,0-2.87,0Zm-3.1-2.53h6v-4h-6Z"/><path class="cls-1" d="M68.4,61.36c1,0,2,0,3,0A2.34,2.34,0,0,1,74,63.86q.06,2,0,4.08a2.37,2.37,0,0,1-2.46,2.5c-2.06.06-4.13.06-6.19,0a2.41,2.41,0,0,1-2.52-2.61c0-1.3,0-2.61,0-3.92a2.35,2.35,0,0,1,2.55-2.54C66.39,61.33,67.4,61.36,68.4,61.36Zm-3,6.52h6.09v-4H65.37Z"/><path class="cls-1" d="M68.38,57c-1,0-2,0-3,0a2.37,2.37,0,0,1-2.53-2.57q-.06-2,0-3.93a2.4,2.4,0,0,1,2.55-2.58c2.06,0,4.13-.06,6.19,0A2.36,2.36,0,0,1,74,50.43c0,1.36,0,2.72,0,4.07A2.31,2.31,0,0,1,71.55,57C70.49,57,69.43,57,68.38,57Zm3.11-6.5H65.4v3.92h6.09Z"/><path class="cls-1" d="M42.37,50.36c-2.47,0-4.93,0-7.4,0-2,0-2.93-1-3-3,0-1.71,0-3.43,0-5.14A2.61,2.61,0,0,1,35,39.37H50a2.63,2.63,0,0,1,3,2.85q.08,2.64,0,5.28c0,1.91-1,2.83-2.94,2.85C47.5,50.39,44.94,50.36,42.37,50.36Zm-7.81-2.58h6.6V41.93h-6.6Zm15.87-5.87H43.84V47.8h6.59Z"/><path class="cls-1" d="M33.4,26.87a9.12,9.12,0,1,1,9.2,9.06A9.15,9.15,0,0,1,33.4,26.87Zm9.14,6.55a6.62,6.62,0,0,0,6.62-6.63,6.65,6.65,0,1,0-13.3.07A6.62,6.62,0,0,0,42.54,33.42Z"/><path class="cls-1" d="M41.48,22.62a1.26,1.26,0,0,1,2.05.12.82.82,0,0,1,.15.44c-.22,1.76-.37,3.5,1.55,4.76.21.14.08,1.15-.2,1.41a1.62,1.62,0,0,1-1.47.14c-1.84-.94-3.05-4.83-2.15-6.76Z"/></svg>