<svg id="Layer_1" data-name="Layer 1" xmlns="http://www.w3.org/2000/svg" viewBox="0 0 85 85"><defs><style>.cls-1{fill:#fda428;}</style></defs><path class="cls-1" d="M48.09,36.92c2.21,0,4.22,0,6.24,0,1.44,0,2.16.49,2.13,2q-.08,3.57,0,7.13c0,1.51-.66,2.07-2.11,2-2-.06-4,0-6.26,0,0,2.14-.06,4.15,0,6.15.07,1.68-.66,2.29-2.28,2.23-2.2-.08-4.41,0-6.61,0-2,0-2.27-.3-2.28-2.36v-6H31.05c-2.24,0-2.46-.23-2.46-2.52q0-3,0-6.09c0-2.35.2-2.53,2.62-2.54h5.73c0-2.14.06-4.15,0-6.15-.06-1.68.66-2.28,2.29-2.23,2.19.08,4.4,0,6.6,0,2,0,2.27.3,2.28,2.35S48.09,34.74,48.09,36.92Zm-8.35,16.6H45.3c0-2.07.06-4,0-6-.07-1.64.58-2.34,2.24-2.27,2,.08,4,0,6,0V39.71c-2.09,0-4.06-.06-6,0-1.67.07-2.28-.66-2.22-2.28.08-2,0-4,0-6H39.73c0,2.09,0,4.1,0,6.11,0,1.56-.57,2.23-2.15,2.18-2.05-.07-4.11,0-6.12,0v5.57h6c2,0,2.27.3,2.28,2.35S39.74,51.45,39.74,53.52Z"/><path class="cls-1" d="M40.28,81.51c-.11,0-.23,0-.34,0A30.87,30.87,0,0,1,20.47,77,27,27,0,0,0,3.66,73.14a3.09,3.09,0,0,1-1.55,0c-.53-.28-1.25-.86-1.25-1.32a1.79,1.79,0,0,1,1.19-1.33c5.09-.12,10.23-.53,15,1.84,3.17,1.56,6.36,3.08,9.54,4.63a16.47,16.47,0,0,0,7.88,1.81,17.49,17.49,0,0,1,2.61,0A36.7,36.7,0,0,0,58.7,74.39c.76-.41,2.12-.51,1.54-1.79a4.35,4.35,0,0,0-2.13-2.14,6.51,6.51,0,0,0-3.24.1,44.55,44.55,0,0,0-4.52,1.26c-1,.32-1.9.19-2-.85a2.12,2.12,0,0,1,1.15-1.71,52.47,52.47,0,0,1,8.46-1.65,4.92,4.92,0,0,1,5,3.82c.73,2.54-.1,4.26-2.54,5.27-1.29.54-2.6,1-3.85,1.62C51.4,80.84,46.09,82.44,40.28,81.51Z"/><path class="cls-1" d="M44.82,3.49a8.42,8.42,0,0,0,.87,0A31.35,31.35,0,0,1,64,7.62a44.56,44.56,0,0,0,10.31,4c2.46.63,5.18.24,7.79.27,1.06,0,2.13.1,2.1,1.45s-1,1.29-2,1.36c-6.64.47-12.94-.55-18.71-4.09S51.6,6,44.89,6.14c-5.5.09-10.67.68-15.57,3.23-1,.51-2,.84-3,1.28-.74.33-2,.44-1.51,1.64a4,4,0,0,0,1.87,2.18,6.83,6.83,0,0,0,3.42,0c1.64-.32,3.22-1,4.86-1.28.55-.1,1.23.47,1.85.74-.31.6-.51,1.62-.94,1.72A50.45,50.45,0,0,1,27,17.37a5,5,0,0,1-5.1-4.91c-.13-2.28.47-3.23,2.62-4.12,1.28-.54,2.59-1,3.84-1.63C33.59,4.15,39,2.57,44.82,3.49Z"/><path class="cls-1" d="M42.68,71.52a4.47,4.47,0,0,0-1.83-4.85,31.74,31.74,0,0,0-4.58-2.42c-1.47-.69-3-1.3-4.5-1.86a6.39,6.39,0,0,1-3.49-2.82c-2.14-3.56-6.83-5.28-11.53-4a34.27,34.27,0,0,1-9.1.86,45.23,45.23,0,0,1-5.21-.07c-.6-.06-1.12-.85-1.68-1.31.55-.47,1.05-1.27,1.65-1.34a36.63,36.63,0,0,1,4.69-.07,45.44,45.44,0,0,0,9.27-.85c6-1.26,11.12.4,14.69,5.76a3.89,3.89,0,0,0,1.63,1.16c2.8,1.27,5.71,2.29,8.4,3.74,3.86,2.08,5.24,5.47,4.19,9.32-.59,2.14-1.2,2.45-3.22,1.61L28.27,68.65l-.8-.34c-.89-.37-1.56-.92-1.09-2s1.29-1,2.2-.57c4.12,1.72,8.24,3.41,12.36,5.11C41.46,71.09,42,71.27,42.68,71.52Z"/><path class="cls-1" d="M42.44,13.48c-.45,2.56.4,4.35,2.94,5.68a76.11,76.11,0,0,0,7,3.07A9.4,9.4,0,0,1,57,25.75c2.73,4,7,4.67,11.34,3.63a36.71,36.71,0,0,1,8.58-.82c1.86,0,3.71,0,5.57,0,1,0,1.88.39,1.68,1.45a2.23,2.23,0,0,1-1.64,1.28,49.77,49.77,0,0,1-5,.07,41.76,41.76,0,0,0-8.75.82c-6,1.27-11.13-.34-14.74-5.66a3.85,3.85,0,0,0-1.6-1.2c-2.38-1.06-4.82-2-7.19-3.06-2.71-1.25-5.11-3-5.58-6.18a14.26,14.26,0,0,1,.51-4.91c.21-1,1.08-1.27,2.08-.85,5.13,2.14,10.28,4.23,15.37,6.44a2.17,2.17,0,0,1,1,1.81c-.2,1-1.14,1.1-2.09.71q-6.16-2.58-12.35-5.12Z"/><path class="cls-1" d="M13.12,42.51a30.39,30.39,0,0,1,5.14-16.36c.19-.29.34-.71.61-.83.65-.29,1.51-.78,2-.56,1,.43.81,1.36.23,2.18A26.64,26.64,0,0,0,16.51,47.7a2.19,2.19,0,0,1-1,1.85c-1,.42-1.57-.39-1.7-1.37C13.58,46.29,13.36,44.4,13.12,42.51Z"/><path class="cls-1" d="M71.79,41.72a30,30,0,0,1-5.36,17.62c-.57.82-1.2,1.78-2.36,1s-.59-1.67,0-2.53a26.28,26.28,0,0,0,4.49-20c-.17-1-.38-2.09,1-2.34s1.61.88,1.75,1.87C71.55,39.09,71.69,40.83,71.79,41.72Z"/><path class="cls-1" d="M25.14,20.35a1.37,1.37,0,0,1,0,2.31,1.49,1.49,0,0,1-.71.28.74.74,0,0,1-.49-.28,1.39,1.39,0,0,1,.13-2,1.91,1.91,0,0,1,.69-.39A.48.48,0,0,1,25.14,20.35Z"/><path class="cls-1" d="M61.44,62.36a1.33,1.33,0,0,1-.17,2.17,1.21,1.21,0,0,1-.66.21.69.69,0,0,1-.39-.18,1.31,1.31,0,0,1,0-2,1.83,1.83,0,0,1,.69-.41C61.07,62.11,61.24,62.2,61.44,62.36Z"/></svg>