<svg id="Layer_1" data-name="Layer 1" xmlns="http://www.w3.org/2000/svg" viewBox="0 0 85 85"><defs><style>.cls-1{fill:#fda428;}</style></defs><path class="cls-1" d="M41.18,43.83a2.7,2.7,0,0,0-2.87-2.68c-1.35,0-2.7,0-4.06,0-3.53,0-4.16.63-4.16,4.13,0,5.43.15,5.58,5.53,5.58.87,0,1.73,0,2.6,0a2.81,2.81,0,0,0,3-3A36.48,36.48,0,0,0,41.18,43.83ZM35.42,48c-.76-.14-2.1.46-2.45-.28-.43-.94-.13-2.22-.14-3.36,0-.54.41-.54.8-.54h2.44c2.31,0,2.31,0,2.31,2.29C38.38,48,38.38,48,35.42,48Zm14.15-6.9c-.81,0-1.63,0-2.44,0-2.15,0-3.15,1-3.2,3.19q0,1.62,0,3.24c0,2.16,1,3.21,3.16,3.27,1.24,0,2.49,0,3.73,0,3.56,0,4.16-.68,4.24-4.29C55.17,41.68,54.76,40.91,49.57,41.14Zm1.3,6.92a9,9,0,0,0-1.47,0c-2.67,0-2.59,0-2.68-2.72,0-1.27.37-1.65,1.55-1.47a9.4,9.4,0,0,0,1.3,0c2.75,0,2.69,0,2.77,2.67C52.37,47.69,52.15,48.28,50.87,48.06Zm-1.3-6.92c-.81,0-1.63,0-2.44,0-2.15,0-3.15,1-3.2,3.19q0,1.62,0,3.24c0,2.16,1,3.21,3.16,3.27,1.24,0,2.49,0,3.73,0,3.56,0,4.16-.68,4.24-4.29C55.17,41.68,54.76,40.91,49.57,41.14Zm1.3,6.92a9,9,0,0,0-1.47,0c-2.67,0-2.59,0-2.68-2.72,0-1.27.37-1.65,1.55-1.47a9.4,9.4,0,0,0,1.3,0c2.75,0,2.69,0,2.77,2.67C52.37,47.69,52.15,48.28,50.87,48.06Zm-9.69-4.23a2.7,2.7,0,0,0-2.87-2.68c-1.35,0-2.7,0-4.06,0-3.53,0-4.16.63-4.16,4.13,0,5.43.15,5.58,5.53,5.58.87,0,1.73,0,2.6,0a2.81,2.81,0,0,0,3-3A36.48,36.48,0,0,0,41.18,43.83ZM35.42,48c-.76-.14-2.1.46-2.45-.28-.43-.94-.13-2.22-.14-3.36,0-.54.41-.54.8-.54h2.44c2.31,0,2.31,0,2.31,2.29C38.38,48,38.38,48,35.42,48Zm5.76-4.21a2.7,2.7,0,0,0-2.87-2.68c-1.35,0-2.7,0-4.06,0-3.53,0-4.16.63-4.16,4.13,0,5.43.15,5.58,5.53,5.58.87,0,1.73,0,2.6,0a2.81,2.81,0,0,0,3-3A36.48,36.48,0,0,0,41.18,43.83ZM35.42,48c-.76-.14-2.1.46-2.45-.28-.43-.94-.13-2.22-.14-3.36,0-.54.41-.54.8-.54h2.44c2.31,0,2.31,0,2.31,2.29C38.38,48,38.38,48,35.42,48Zm14.15-6.9c-.81,0-1.63,0-2.44,0-2.15,0-3.15,1-3.2,3.19q0,1.62,0,3.24c0,2.16,1,3.21,3.16,3.27,1.24,0,2.49,0,3.73,0,3.56,0,4.16-.68,4.24-4.29C55.17,41.68,54.76,40.91,49.57,41.14Zm1.3,6.92a9,9,0,0,0-1.47,0c-2.67,0-2.59,0-2.68-2.72,0-1.27.37-1.65,1.55-1.47a9.4,9.4,0,0,0,1.3,0c2.75,0,2.69,0,2.77,2.67C52.37,47.69,52.15,48.28,50.87,48.06Zm-1.3-6.92c-.81,0-1.63,0-2.44,0-2.15,0-3.15,1-3.2,3.19q0,1.62,0,3.24c0,2.16,1,3.21,3.16,3.27,1.24,0,2.49,0,3.73,0,3.56,0,4.16-.68,4.24-4.29C55.17,41.68,54.76,40.91,49.57,41.14Zm1.3,6.92a9,9,0,0,0-1.47,0c-2.67,0-2.59,0-2.68-2.72,0-1.27.37-1.65,1.55-1.47a9.4,9.4,0,0,0,1.3,0c2.75,0,2.69,0,2.77,2.67C52.37,47.69,52.15,48.28,50.87,48.06Zm-9.69-4.23a2.7,2.7,0,0,0-2.87-2.68c-1.35,0-2.7,0-4.06,0-3.53,0-4.16.63-4.16,4.13,0,5.43.15,5.58,5.53,5.58.87,0,1.73,0,2.6,0a2.81,2.81,0,0,0,3-3A36.48,36.48,0,0,0,41.18,43.83ZM35.42,48c-.76-.14-2.1.46-2.45-.28-.43-.94-.13-2.22-.14-3.36,0-.54.41-.54.8-.54h2.44c2.31,0,2.31,0,2.31,2.29C38.38,48,38.38,48,35.42,48Zm5.76-4.21a2.7,2.7,0,0,0-2.87-2.68c-1.35,0-2.7,0-4.06,0-3.53,0-4.16.63-4.16,4.13,0,5.43.15,5.58,5.53,5.58.87,0,1.73,0,2.6,0a2.81,2.81,0,0,0,3-3A36.48,36.48,0,0,0,41.18,43.83ZM35.42,48c-.76-.14-2.1.46-2.45-.28-.43-.94-.13-2.22-.14-3.36,0-.54.41-.54.8-.54h2.44c2.31,0,2.31,0,2.31,2.29C38.38,48,38.38,48,35.42,48Zm14.15-6.9c-.81,0-1.63,0-2.44,0-2.15,0-3.15,1-3.2,3.19q0,1.62,0,3.24c0,2.16,1,3.21,3.16,3.27,1.24,0,2.49,0,3.73,0,3.56,0,4.16-.68,4.24-4.29C55.17,41.68,54.76,40.91,49.57,41.14Zm1.3,6.92a9,9,0,0,0-1.47,0c-2.67,0-2.59,0-2.68-2.72,0-1.27.37-1.65,1.55-1.47a9.4,9.4,0,0,0,1.3,0c2.75,0,2.69,0,2.77,2.67C52.37,47.69,52.15,48.28,50.87,48.06Zm-1.3-6.92c-.81,0-1.63,0-2.44,0-2.15,0-3.15,1-3.2,3.19q0,1.62,0,3.24c0,2.16,1,3.21,3.16,3.27,1.24,0,2.49,0,3.73,0,3.56,0,4.16-.68,4.24-4.29C55.17,41.68,54.76,40.91,49.57,41.14Zm1.3,6.92a9,9,0,0,0-1.47,0c-2.67,0-2.59,0-2.68-2.72,0-1.27.37-1.65,1.55-1.47a9.4,9.4,0,0,0,1.3,0c2.75,0,2.69,0,2.77,2.67C52.37,47.69,52.15,48.28,50.87,48.06ZM38.31,41.15c-1.35,0-2.7,0-4.06,0-3.53,0-4.16.63-4.16,4.13,0,5.43.15,5.58,5.53,5.58.87,0,1.73,0,2.6,0a2.81,2.81,0,0,0,3-3,36.48,36.48,0,0,0,0-4.05A2.7,2.7,0,0,0,38.31,41.15ZM35.42,48c-.76-.14-2.1.46-2.45-.28-.43-.94-.13-2.22-.14-3.36,0-.54.41-.54.8-.54h2.44c2.31,0,2.31,0,2.31,2.29C38.38,48,38.38,48,35.42,48ZM42.77,6.39A27.79,27.79,0,1,0,70.31,34.26,27.73,27.73,0,0,0,42.77,6.39ZM38.23,58.72a20.71,20.71,0,0,1-4.51-1.2c-.38-.15-1-.19-.84-.77s.72-.31,1.11-.33c.81,0,1.62,0,2.44,0C38.55,56.41,38.55,56.41,38.23,58.72ZM51.6,57.46a26.09,26.09,0,0,1-4.67,1.3c-.39-2.35-.39-2.35,1.74-2.35.92,0,1.84,0,2.77,0,.28,0,.7-.15.81.29S52,57.32,51.6,57.46Zm6.26-4.52c0,1.89-1.84,1.84-2.76,2.92C54.39,54,53,53.48,51.29,53.58c-1.19.06-2.39,0-3.58,0-2.88,0-3.74.9-3.8,3.8,0,.71.54,1.76-1,1.78-1.31,0-1.75-.26-1.7-1.67.11-3.08-.82-3.91-4-3.91H33.14a2.73,2.73,0,0,0-2.69,1.47c-.33.67-.58.57-1.17.27a3.4,3.4,0,0,1-2.05-3.58c.16-4.06.08-8.13,0-12.2,0-1,.24-1.27,1.25-1.26q14.08,0,28.15,0c.88,0,1.23.18,1.22,1.14C57.83,43.93,57.84,48.43,57.86,52.94ZM59,35.6c-5.47,0-11,0-16.43,0s-10.95,0-16.43,0c-1,0-1.69,0-1.68-1.4s.45-1.47,1.59-1.47q16.51.08,33,0c1.11,0,1.6.13,1.6,1.45S60.05,35.61,59,35.6ZM35.65,23V17.77c0-.94.36-1.63,1.39-1.61s1.3.72,1.35,1.66c.19,3.85.2,3.85,4.09,3.85s3.94,0,4.27-4c.07-.89.43-1.49,1.34-1.5s1.38.56,1.38,1.45q0,5.45,0,10.89A1.28,1.28,0,0,1,48.11,30c-.89,0-1.29-.57-1.36-1.48-.34-4-.36-4-4.43-4h-.16c-3.66,0-3.68,0-3.77,3.69,0,1-.26,1.8-1.36,1.81s-1.4-.79-1.39-1.78C35.67,26.45,35.65,24.71,35.65,23ZM44,29.45c.19,1.17-3,1.2-2.89-.08.1-.85-.61-2.26,1.48-2.24S43.88,28.64,44,29.45Zm16.6,21.62c0-4,0-8,0-11.93,0-.61.26-.77.81-1a2.75,2.75,0,0,0,2-3c0-.37,0-.75,0-1.13,0-3.29-.74-4-4-4-2.11,0-4.23,0-6.35,0-.64,0-.87-.06-.85-.88.11-3.74.09-7.48.08-11.22,0-2.65-1.68-4.51-4-4.6A4.16,4.16,0,0,0,44,17.66c0,1.23-.57,1.23-1.47,1.25s-1.3-.13-1.34-1.21a4.16,4.16,0,0,0-4.24-4.37,4.27,4.27,0,0,0-4.09,4.56c0,3.69,0,7.38.06,11.06,0,.91-.1,1.11-1,1.09-2.28-.05-4.56,0-6.84,0s-3.34,1-3.36,3.34c0,.76,0,1.52,0,2.28a2.19,2.19,0,0,0,1.37,2.22c1.54.39,1.44,1.38,1.42,2.54,0,3.47,0,6.94,0,10.41,0,0-.06.07-.09.11-4.63-3.75-8.77-13.83-5.9-23.74a25,25,0,0,1,47.74-1.11C69.7,36.16,65.78,46.61,60.61,51.07Zm-11-9.93c-.81,0-1.63,0-2.44,0-2.15,0-3.15,1-3.2,3.19q0,1.62,0,3.24c0,2.16,1,3.21,3.16,3.27,1.24,0,2.49,0,3.73,0,3.56,0,4.16-.68,4.24-4.29C55.17,41.68,54.76,40.91,49.57,41.14Zm1.3,6.92a9,9,0,0,0-1.47,0c-2.67,0-2.59,0-2.68-2.72,0-1.27.37-1.65,1.55-1.47a9.4,9.4,0,0,0,1.3,0c2.75,0,2.69,0,2.77,2.67C52.37,47.69,52.15,48.28,50.87,48.06ZM38.31,41.15c-1.35,0-2.7,0-4.06,0-3.53,0-4.16.63-4.16,4.13,0,5.43.15,5.58,5.53,5.58.87,0,1.73,0,2.6,0a2.81,2.81,0,0,0,3-3,36.48,36.48,0,0,0,0-4.05A2.7,2.7,0,0,0,38.31,41.15ZM35.42,48c-.76-.14-2.1.46-2.45-.28-.43-.94-.13-2.22-.14-3.36,0-.54.41-.54.8-.54h2.44c2.31,0,2.31,0,2.31,2.29C38.38,48,38.38,48,35.42,48Zm5.76-4.21a2.7,2.7,0,0,0-2.87-2.68c-1.35,0-2.7,0-4.06,0-3.53,0-4.16.63-4.16,4.13,0,5.43.15,5.58,5.53,5.58.87,0,1.73,0,2.6,0a2.81,2.81,0,0,0,3-3A36.48,36.48,0,0,0,41.18,43.83ZM35.42,48c-.76-.14-2.1.46-2.45-.28-.43-.94-.13-2.22-.14-3.36,0-.54.41-.54.8-.54h2.44c2.31,0,2.31,0,2.31,2.29C38.38,48,38.38,48,35.42,48Zm14.15-6.9c-.81,0-1.63,0-2.44,0-2.15,0-3.15,1-3.2,3.19q0,1.62,0,3.24c0,2.16,1,3.21,3.16,3.27,1.24,0,2.49,0,3.73,0,3.56,0,4.16-.68,4.24-4.29C55.17,41.68,54.76,40.91,49.57,41.14Zm1.3,6.92a9,9,0,0,0-1.47,0c-2.67,0-2.59,0-2.68-2.72,0-1.27.37-1.65,1.55-1.47a9.4,9.4,0,0,0,1.3,0c2.75,0,2.69,0,2.77,2.67C52.37,47.69,52.15,48.28,50.87,48.06Zm-1.3-6.92c-.81,0-1.63,0-2.44,0-2.15,0-3.15,1-3.2,3.19q0,1.62,0,3.24c0,2.16,1,3.21,3.16,3.27,1.24,0,2.49,0,3.73,0,3.56,0,4.16-.68,4.24-4.29C55.17,41.68,54.76,40.91,49.57,41.14Zm1.3,6.92a9,9,0,0,0-1.47,0c-2.67,0-2.59,0-2.68-2.72,0-1.27.37-1.65,1.55-1.47a9.4,9.4,0,0,0,1.3,0c2.75,0,2.69,0,2.77,2.67C52.37,47.69,52.15,48.28,50.87,48.06Zm-9.69-4.23a2.7,2.7,0,0,0-2.87-2.68c-1.35,0-2.7,0-4.06,0-3.53,0-4.16.63-4.16,4.13,0,5.43.15,5.58,5.53,5.58.87,0,1.73,0,2.6,0a2.81,2.81,0,0,0,3-3A36.48,36.48,0,0,0,41.18,43.83ZM35.42,48c-.76-.14-2.1.46-2.45-.28-.43-.94-.13-2.22-.14-3.36,0-.54.41-.54.8-.54h2.44c2.31,0,2.31,0,2.31,2.29C38.38,48,38.38,48,35.42,48Zm5.76-4.21a2.7,2.7,0,0,0-2.87-2.68c-1.35,0-2.7,0-4.06,0-3.53,0-4.16.63-4.16,4.13,0,5.43.15,5.58,5.53,5.58.87,0,1.73,0,2.6,0a2.81,2.81,0,0,0,3-3A36.48,36.48,0,0,0,41.18,43.83ZM35.42,48c-.76-.14-2.1.46-2.45-.28-.43-.94-.13-2.22-.14-3.36,0-.54.41-.54.8-.54h2.44c2.31,0,2.31,0,2.31,2.29C38.38,48,38.38,48,35.42,48Zm14.15-6.9c-.81,0-1.63,0-2.44,0-2.15,0-3.15,1-3.2,3.19q0,1.62,0,3.24c0,2.16,1,3.21,3.16,3.27,1.24,0,2.49,0,3.73,0,3.56,0,4.16-.68,4.24-4.29C55.17,41.68,54.76,40.91,49.57,41.14Zm1.3,6.92a9,9,0,0,0-1.47,0c-2.67,0-2.59,0-2.68-2.72,0-1.27.37-1.65,1.55-1.47a9.4,9.4,0,0,0,1.3,0c2.75,0,2.69,0,2.77,2.67C52.37,47.69,52.15,48.28,50.87,48.06Zm-1.3-6.92c-.81,0-1.63,0-2.44,0-2.15,0-3.15,1-3.2,3.19q0,1.62,0,3.24c0,2.16,1,3.21,3.16,3.27,1.24,0,2.49,0,3.73,0,3.56,0,4.16-.68,4.24-4.29C55.17,41.68,54.76,40.91,49.57,41.14Zm1.3,6.92a9,9,0,0,0-1.47,0c-2.67,0-2.59,0-2.68-2.72,0-1.27.37-1.65,1.55-1.47a9.4,9.4,0,0,0,1.3,0c2.75,0,2.69,0,2.77,2.67C52.37,47.69,52.15,48.28,50.87,48.06Zm-9.69-4.23a2.7,2.7,0,0,0-2.87-2.68c-1.35,0-2.7,0-4.06,0-3.53,0-4.16.63-4.16,4.13,0,5.43.15,5.58,5.53,5.58.87,0,1.73,0,2.6,0a2.81,2.81,0,0,0,3-3A36.48,36.48,0,0,0,41.18,43.83ZM35.42,48c-.76-.14-2.1.46-2.45-.28-.43-.94-.13-2.22-.14-3.36,0-.54.41-.54.8-.54h2.44c2.31,0,2.31,0,2.31,2.29C38.38,48,38.38,48,35.42,48Z"/><path class="cls-1" d="M57.27,64c12-6.28,18.39-16.25,18.55-29.78.25-20.49-18.36-36.27-38.52-33A33.4,33.4,0,0,0,9.44,30.29C7.6,44.46,15.64,58.55,29,64.59a3.36,3.36,0,0,1,1.24.71c1.35,1.74,2.63,3.54,4.06,5.47l-2.09.36A22.31,22.31,0,0,0,24,73.86c-2.95,1.89-3,4.67-.07,6.65a12.1,12.1,0,0,0,3.67,1.68A57.86,57.86,0,0,0,56,82.65a14.84,14.84,0,0,0,5.37-2.23c2.73-1.93,2.7-4.56-.05-6.46a12.86,12.86,0,0,0-4.13-1.83c-2-.53-4.09-.95-6.27-1.45.82-1.13,1.66-2.19,2.38-3.31A9.89,9.89,0,0,1,57.27,64ZM53.45,74a24.54,24.54,0,0,1,6,2c1.52.87,1.54,1.5,0,2.36a24.54,24.54,0,0,1-8.67,2.48,60,60,0,0,1-8.26.5c-5,0-10-.35-14.72-2.06-1.22-.43-3.1-.7-3.06-2.16,0-1.3,1.86-1.6,3-2a36.24,36.24,0,0,1,7.43-1.63,1.4,1.4,0,0,1,1.62.7,25.87,25.87,0,0,0,1.82,2.48,4.92,4.92,0,0,0,7.86,0,.41.41,0,0,0,.1-.13C48,73.2,50.49,73.19,53.45,74ZM48.76,64a6.49,6.49,0,0,0-1.26.34,1.26,1.26,0,0,0-.73,1.48A1.15,1.15,0,0,0,48,66.92c.75,0,1.49-.18,2.46-.31-2.11,2.86-4.08,5.63-6.16,8.31a2.12,2.12,0,0,1-3.5,0c-2-2.66-4-5.39-6.11-8.28.84.13,1.45.25,2.06.33a1.27,1.27,0,0,0,1.6-1,1.28,1.28,0,0,0-1.08-1.68c-1.16-.28-2.32-.53-3.46-.87a30.56,30.56,0,1,1,15,.66Z"/><path class="cls-1" d="M41.18,43.83a2.7,2.7,0,0,0-2.87-2.68c-1.35,0-2.7,0-4.06,0-3.53,0-4.16.63-4.16,4.13,0,5.43.15,5.58,5.53,5.58.87,0,1.73,0,2.6,0a2.81,2.81,0,0,0,3-3A36.48,36.48,0,0,0,41.18,43.83ZM35.42,48c-.76-.14-2.1.46-2.45-.28-.43-.94-.13-2.22-.14-3.36,0-.54.41-.54.8-.54h2.44c2.31,0,2.31,0,2.31,2.29C38.38,48,38.38,48,35.42,48Zm14.15-6.9c-.81,0-1.63,0-2.44,0-2.15,0-3.15,1-3.2,3.19q0,1.62,0,3.24c0,2.16,1,3.21,3.16,3.27,1.24,0,2.49,0,3.73,0,3.56,0,4.16-.68,4.24-4.29C55.17,41.68,54.76,40.91,49.57,41.14Zm1.3,6.92a9,9,0,0,0-1.47,0c-2.67,0-2.59,0-2.68-2.72,0-1.27.37-1.65,1.55-1.47a9.4,9.4,0,0,0,1.3,0c2.75,0,2.69,0,2.77,2.67C52.37,47.69,52.15,48.28,50.87,48.06Zm-1.3-6.92c-.81,0-1.63,0-2.44,0-2.15,0-3.15,1-3.2,3.19q0,1.62,0,3.24c0,2.16,1,3.21,3.16,3.27,1.24,0,2.49,0,3.73,0,3.56,0,4.16-.68,4.24-4.29C55.17,41.68,54.76,40.91,49.57,41.14Zm1.3,6.92a9,9,0,0,0-1.47,0c-2.67,0-2.59,0-2.68-2.72,0-1.27.37-1.65,1.55-1.47a9.4,9.4,0,0,0,1.3,0c2.75,0,2.69,0,2.77,2.67C52.37,47.69,52.15,48.28,50.87,48.06Zm-9.69-4.23a2.7,2.7,0,0,0-2.87-2.68c-1.35,0-2.7,0-4.06,0-3.53,0-4.16.63-4.16,4.13,0,5.43.15,5.58,5.53,5.58.87,0,1.73,0,2.6,0a2.81,2.81,0,0,0,3-3A36.48,36.48,0,0,0,41.18,43.83ZM35.42,48c-.76-.14-2.1.46-2.45-.28-.43-.94-.13-2.22-.14-3.36,0-.54.41-.54.8-.54h2.44c2.31,0,2.31,0,2.31,2.29C38.38,48,38.38,48,35.42,48Zm5.76-4.21a2.7,2.7,0,0,0-2.87-2.68c-1.35,0-2.7,0-4.06,0-3.53,0-4.16.63-4.16,4.13,0,5.43.15,5.58,5.53,5.58.87,0,1.73,0,2.6,0a2.81,2.81,0,0,0,3-3A36.48,36.48,0,0,0,41.18,43.83ZM35.42,48c-.76-.14-2.1.46-2.45-.28-.43-.94-.13-2.22-.14-3.36,0-.54.41-.54.8-.54h2.44c2.31,0,2.31,0,2.31,2.29C38.38,48,38.38,48,35.42,48Zm14.15-6.9c-.81,0-1.63,0-2.44,0-2.15,0-3.15,1-3.2,3.19q0,1.62,0,3.24c0,2.16,1,3.21,3.16,3.27,1.24,0,2.49,0,3.73,0,3.56,0,4.16-.68,4.24-4.29C55.17,41.68,54.76,40.91,49.57,41.14Zm1.3,6.92a9,9,0,0,0-1.47,0c-2.67,0-2.59,0-2.68-2.72,0-1.27.37-1.65,1.55-1.47a9.4,9.4,0,0,0,1.3,0c2.75,0,2.69,0,2.77,2.67C52.37,47.69,52.15,48.28,50.87,48.06Zm-1.3-6.92c-.81,0-1.63,0-2.44,0-2.15,0-3.15,1-3.2,3.19q0,1.62,0,3.24c0,2.16,1,3.21,3.16,3.27,1.24,0,2.49,0,3.73,0,3.56,0,4.16-.68,4.24-4.29C55.17,41.68,54.76,40.91,49.57,41.14Zm1.3,6.92a9,9,0,0,0-1.47,0c-2.67,0-2.59,0-2.68-2.72,0-1.27.37-1.65,1.55-1.47a9.4,9.4,0,0,0,1.3,0c2.75,0,2.69,0,2.77,2.67C52.37,47.69,52.15,48.28,50.87,48.06Zm-9.69-4.23a2.7,2.7,0,0,0-2.87-2.68c-1.35,0-2.7,0-4.06,0-3.53,0-4.16.63-4.16,4.13,0,5.43.15,5.58,5.53,5.58.87,0,1.73,0,2.6,0a2.81,2.81,0,0,0,3-3A36.48,36.48,0,0,0,41.18,43.83ZM35.42,48c-.76-.14-2.1.46-2.45-.28-.43-.94-.13-2.22-.14-3.36,0-.54.41-.54.8-.54h2.44c2.31,0,2.31,0,2.31,2.29C38.38,48,38.38,48,35.42,48Zm5.76-4.21a2.7,2.7,0,0,0-2.87-2.68c-1.35,0-2.7,0-4.06,0-3.53,0-4.16.63-4.16,4.13,0,5.43.15,5.58,5.53,5.58.87,0,1.73,0,2.6,0a2.81,2.81,0,0,0,3-3A36.48,36.48,0,0,0,41.18,43.83ZM35.42,48c-.76-.14-2.1.46-2.45-.28-.43-.94-.13-2.22-.14-3.36,0-.54.41-.54.8-.54h2.44c2.31,0,2.31,0,2.31,2.29C38.38,48,38.38,48,35.42,48Zm14.15-6.9c-.81,0-1.63,0-2.44,0-2.15,0-3.15,1-3.2,3.19q0,1.62,0,3.24c0,2.16,1,3.21,3.16,3.27,1.24,0,2.49,0,3.73,0,3.56,0,4.16-.68,4.24-4.29C55.17,41.68,54.76,40.91,49.57,41.14Zm1.3,6.92a9,9,0,0,0-1.47,0c-2.67,0-2.59,0-2.68-2.72,0-1.27.37-1.65,1.55-1.47a9.4,9.4,0,0,0,1.3,0c2.75,0,2.69,0,2.77,2.67C52.37,47.69,52.15,48.28,50.87,48.06Zm-1.3-6.92c-.81,0-1.63,0-2.44,0-2.15,0-3.15,1-3.2,3.19q0,1.62,0,3.24c0,2.16,1,3.21,3.16,3.27,1.24,0,2.49,0,3.73,0,3.56,0,4.16-.68,4.24-4.29C55.17,41.68,54.76,40.91,49.57,41.14Zm1.3,6.92a9,9,0,0,0-1.47,0c-2.67,0-2.59,0-2.68-2.72,0-1.27.37-1.65,1.55-1.47a9.4,9.4,0,0,0,1.3,0c2.75,0,2.69,0,2.77,2.67C52.37,47.69,52.15,48.28,50.87,48.06ZM38.31,41.15c-1.35,0-2.7,0-4.06,0-3.53,0-4.16.63-4.16,4.13,0,5.43.15,5.58,5.53,5.58.87,0,1.73,0,2.6,0a2.81,2.81,0,0,0,3-3,36.48,36.48,0,0,0,0-4.05A2.7,2.7,0,0,0,38.31,41.15ZM35.42,48c-.76-.14-2.1.46-2.45-.28-.43-.94-.13-2.22-.14-3.36,0-.54.41-.54.8-.54h2.44c2.31,0,2.31,0,2.31,2.29C38.38,48,38.38,48,35.42,48ZM42.77,6.39A27.79,27.79,0,1,0,70.31,34.26,27.73,27.73,0,0,0,42.77,6.39ZM38.23,58.72a20.71,20.71,0,0,1-4.51-1.2c-.38-.15-1-.19-.84-.77s.72-.31,1.11-.33c.81,0,1.62,0,2.44,0C38.55,56.41,38.55,56.41,38.23,58.72ZM51.6,57.46a26.09,26.09,0,0,1-4.67,1.3c-.39-2.35-.39-2.35,1.74-2.35.92,0,1.84,0,2.77,0,.28,0,.7-.15.81.29S52,57.32,51.6,57.46Zm6.26-4.52c0,1.89-1.84,1.84-2.76,2.92C54.39,54,53,53.48,51.29,53.58c-1.19.06-2.39,0-3.58,0-2.88,0-3.74.9-3.8,3.8,0,.71.54,1.76-1,1.78-1.31,0-1.75-.26-1.7-1.67.11-3.08-.82-3.91-4-3.91H33.14a2.73,2.73,0,0,0-2.69,1.47c-.33.67-.58.57-1.17.27a3.4,3.4,0,0,1-2.05-3.58c.16-4.06.08-8.13,0-12.2,0-1,.24-1.27,1.25-1.26q14.08,0,28.15,0c.88,0,1.23.18,1.22,1.14C57.83,43.93,57.84,48.43,57.86,52.94ZM59,35.6c-5.47,0-11,0-16.43,0s-10.95,0-16.43,0c-1,0-1.69,0-1.68-1.4s.45-1.47,1.59-1.47q16.51.08,33,0c1.11,0,1.6.13,1.6,1.45S60.05,35.61,59,35.6ZM35.65,23V17.77c0-.94.36-1.63,1.39-1.61s1.3.72,1.35,1.66c.19,3.85.2,3.85,4.09,3.85s3.94,0,4.27-4c.07-.89.43-1.49,1.34-1.5s1.38.56,1.38,1.45q0,5.45,0,10.89A1.28,1.28,0,0,1,48.11,30c-.89,0-1.29-.57-1.36-1.48-.34-4-.36-4-4.43-4h-.16c-3.66,0-3.68,0-3.77,3.69,0,1-.26,1.8-1.36,1.81s-1.4-.79-1.39-1.78C35.67,26.45,35.65,24.71,35.65,23ZM44,29.45H41.12s-.61-2.35,1.48-2.33S44,29.45,44,29.45Zm16.6,21.62c0-4,0-8,0-11.93,0-.61.26-.77.81-1a2.75,2.75,0,0,0,2-3c0-.37,0-.75,0-1.13,0-3.29-.74-4-4-4-2.11,0-4.23,0-6.35,0-.64,0-.87-.06-.85-.88.11-3.74.09-7.48.08-11.22,0-2.65-1.68-4.51-4-4.6A4.16,4.16,0,0,0,44,17.66c0,1.23-.57,1.23-1.47,1.25s-1.3-.13-1.34-1.21a4.16,4.16,0,0,0-4.24-4.37,4.27,4.27,0,0,0-4.09,4.56c0,3.69,0,7.38.06,11.06,0,.91-.1,1.11-1,1.09-2.28-.05-4.56,0-6.84,0s-3.34,1-3.36,3.34c0,.76,0,1.52,0,2.28a2.19,2.19,0,0,0,1.37,2.22c1.54.39,1.44,1.38,1.42,2.54,0,3.47,0,6.94,0,10.41,0,0-.06.07-.09.11-4.63-3.75-8.77-13.83-5.9-23.74a25,25,0,0,1,47.74-1.11C69.7,36.16,65.78,46.61,60.61,51.07Zm-11-9.93c-.81,0-1.63,0-2.44,0-2.15,0-3.15,1-3.2,3.19q0,1.62,0,3.24c0,2.16,1,3.21,3.16,3.27,1.24,0,2.49,0,3.73,0,3.56,0,4.16-.68,4.24-4.29C55.17,41.68,54.76,40.91,49.57,41.14Zm1.3,6.92a9,9,0,0,0-1.47,0c-2.67,0-2.59,0-2.68-2.72,0-1.27.37-1.65,1.55-1.47a9.4,9.4,0,0,0,1.3,0c2.75,0,2.69,0,2.77,2.67C52.37,47.69,52.15,48.28,50.87,48.06ZM38.31,41.15c-1.35,0-2.7,0-4.06,0-3.53,0-4.16.63-4.16,4.13,0,5.43.15,5.58,5.53,5.58.87,0,1.73,0,2.6,0a2.81,2.81,0,0,0,3-3,36.48,36.48,0,0,0,0-4.05A2.7,2.7,0,0,0,38.31,41.15ZM35.42,48c-.76-.14-2.1.46-2.45-.28-.43-.94-.13-2.22-.14-3.36,0-.54.41-.54.8-.54h2.44c2.31,0,2.31,0,2.31,2.29C38.38,48,38.38,48,35.42,48Zm5.76-4.21a2.7,2.7,0,0,0-2.87-2.68c-1.35,0-2.7,0-4.06,0-3.53,0-4.16.63-4.16,4.13,0,5.43.15,5.58,5.53,5.58.87,0,1.73,0,2.6,0a2.81,2.81,0,0,0,3-3A36.48,36.48,0,0,0,41.18,43.83ZM35.42,48c-.76-.14-2.1.46-2.45-.28-.43-.94-.13-2.22-.14-3.36,0-.54.41-.54.8-.54h2.44c2.31,0,2.31,0,2.31,2.29C38.38,48,38.38,48,35.42,48Zm14.15-6.9c-.81,0-1.63,0-2.44,0-2.15,0-3.15,1-3.2,3.19q0,1.62,0,3.24c0,2.16,1,3.21,3.16,3.27,1.24,0,2.49,0,3.73,0,3.56,0,4.16-.68,4.24-4.29C55.17,41.68,54.76,40.91,49.57,41.14Zm1.3,6.92a9,9,0,0,0-1.47,0c-2.67,0-2.59,0-2.68-2.72,0-1.27.37-1.65,1.55-1.47a9.4,9.4,0,0,0,1.3,0c2.75,0,2.69,0,2.77,2.67C52.37,47.69,52.15,48.28,50.87,48.06Zm-1.3-6.92c-.81,0-1.63,0-2.44,0-2.15,0-3.15,1-3.2,3.19q0,1.62,0,3.24c0,2.16,1,3.21,3.16,3.27,1.24,0,2.49,0,3.73,0,3.56,0,4.16-.68,4.24-4.29C55.17,41.68,54.76,40.91,49.57,41.14Zm1.3,6.92a9,9,0,0,0-1.47,0c-2.67,0-2.59,0-2.68-2.72,0-1.27.37-1.65,1.55-1.47a9.4,9.4,0,0,0,1.3,0c2.75,0,2.69,0,2.77,2.67C52.37,47.69,52.15,48.28,50.87,48.06Zm-9.69-4.23a2.7,2.7,0,0,0-2.87-2.68c-1.35,0-2.7,0-4.06,0-3.53,0-4.16.63-4.16,4.13,0,5.43.15,5.58,5.53,5.58.87,0,1.73,0,2.6,0a2.81,2.81,0,0,0,3-3A36.48,36.48,0,0,0,41.18,43.83ZM35.42,48c-.76-.14-2.1.46-2.45-.28-.43-.94-.13-2.22-.14-3.36,0-.54.41-.54.8-.54h2.44c2.31,0,2.31,0,2.31,2.29C38.38,48,38.38,48,35.42,48Zm5.76-4.21a2.7,2.7,0,0,0-2.87-2.68c-1.35,0-2.7,0-4.06,0-3.53,0-4.16.63-4.16,4.13,0,5.43.15,5.58,5.53,5.58.87,0,1.73,0,2.6,0a2.81,2.81,0,0,0,3-3A36.48,36.48,0,0,0,41.18,43.83ZM35.42,48c-.76-.14-2.1.46-2.45-.28-.43-.94-.13-2.22-.14-3.36,0-.54.41-.54.8-.54h2.44c2.31,0,2.31,0,2.31,2.29C38.38,48,38.38,48,35.42,48Zm14.15-6.9c-.81,0-1.63,0-2.44,0-2.15,0-3.15,1-3.2,3.19q0,1.62,0,3.24c0,2.16,1,3.21,3.16,3.27,1.24,0,2.49,0,3.73,0,3.56,0,4.16-.68,4.24-4.29C55.17,41.68,54.76,40.91,49.57,41.14Zm1.3,6.92a9,9,0,0,0-1.47,0c-2.67,0-2.59,0-2.68-2.72,0-1.27.37-1.65,1.55-1.47a9.4,9.4,0,0,0,1.3,0c2.75,0,2.69,0,2.77,2.67C52.37,47.69,52.15,48.28,50.87,48.06Zm-1.3-6.92c-.81,0-1.63,0-2.44,0-2.15,0-3.15,1-3.2,3.19q0,1.62,0,3.24c0,2.16,1,3.21,3.16,3.27,1.24,0,2.49,0,3.73,0,3.56,0,4.16-.68,4.24-4.29C55.17,41.68,54.76,40.91,49.57,41.14Zm1.3,6.92a9,9,0,0,0-1.47,0c-2.67,0-2.59,0-2.68-2.72,0-1.27.37-1.65,1.55-1.47a9.4,9.4,0,0,0,1.3,0c2.75,0,2.69,0,2.77,2.67C52.37,47.69,52.15,48.28,50.87,48.06Zm-9.69-4.23a2.7,2.7,0,0,0-2.87-2.68c-1.35,0-2.7,0-4.06,0-3.53,0-4.16.63-4.16,4.13,0,5.43.15,5.58,5.53,5.58.87,0,1.73,0,2.6,0a2.81,2.81,0,0,0,3-3A36.48,36.48,0,0,0,41.18,43.83ZM35.42,48c-.76-.14-2.1.46-2.45-.28-.43-.94-.13-2.22-.14-3.36,0-.54.41-.54.8-.54h2.44c2.31,0,2.31,0,2.31,2.29C38.38,48,38.38,48,35.42,48Zm5.76-4.21a2.7,2.7,0,0,0-2.87-2.68c-1.35,0-2.7,0-4.06,0-3.53,0-4.16.63-4.16,4.13,0,5.43.15,5.58,5.53,5.58.87,0,1.73,0,2.6,0a2.81,2.81,0,0,0,3-3A36.48,36.48,0,0,0,41.18,43.83ZM35.42,48c-.76-.14-2.1.46-2.45-.28-.43-.94-.13-2.22-.14-3.36,0-.54.41-.54.8-.54h2.44c2.31,0,2.31,0,2.31,2.29C38.38,48,38.38,48,35.42,48Zm14.15-6.9c-.81,0-1.63,0-2.44,0-2.15,0-3.15,1-3.2,3.19q0,1.62,0,3.24c0,2.16,1,3.21,3.16,3.27,1.24,0,2.49,0,3.73,0,3.56,0,4.16-.68,4.24-4.29C55.17,41.68,54.76,40.91,49.57,41.14Zm1.3,6.92a9,9,0,0,0-1.47,0c-2.67,0-2.59,0-2.68-2.72,0-1.27.37-1.65,1.55-1.47a9.4,9.4,0,0,0,1.3,0c2.75,0,2.69,0,2.77,2.67C52.37,47.69,52.15,48.28,50.87,48.06Zm-1.3-6.92c-.81,0-1.63,0-2.44,0-2.15,0-3.15,1-3.2,3.19q0,1.62,0,3.24c0,2.16,1,3.21,3.16,3.27,1.24,0,2.49,0,3.73,0,3.56,0,4.16-.68,4.24-4.29C55.17,41.68,54.76,40.91,49.57,41.14Zm1.3,6.92a9,9,0,0,0-1.47,0c-2.67,0-2.59,0-2.68-2.72,0-1.27.37-1.65,1.55-1.47a9.4,9.4,0,0,0,1.3,0c2.75,0,2.69,0,2.77,2.67C52.37,47.69,52.15,48.28,50.87,48.06Zm-9.69-4.23a2.7,2.7,0,0,0-2.87-2.68c-1.35,0-2.7,0-4.06,0-3.53,0-4.16.63-4.16,4.13,0,5.43.15,5.58,5.53,5.58.87,0,1.73,0,2.6,0a2.81,2.81,0,0,0,3-3A36.48,36.48,0,0,0,41.18,43.83ZM35.42,48c-.76-.14-2.1.46-2.45-.28-.43-.94-.13-2.22-.14-3.36,0-.54.41-.54.8-.54h2.44c2.31,0,2.31,0,2.31,2.29C38.38,48,38.38,48,35.42,48Z"/><path class="cls-1" d="M41.18,43.83a2.7,2.7,0,0,0-2.87-2.68c-1.35,0-2.7,0-4.06,0-3.53,0-4.16.63-4.16,4.13,0,5.43.15,5.58,5.53,5.58.87,0,1.73,0,2.6,0a2.81,2.81,0,0,0,3-3A36.48,36.48,0,0,0,41.18,43.83ZM35.42,48c-.76-.14-2.1.46-2.45-.28-.43-.94-.13-2.22-.14-3.36,0-.54.41-.54.8-.54h2.44c2.31,0,2.31,0,2.31,2.29C38.38,48,38.38,48,35.42,48Z"/><path class="cls-1" d="M49.57,41.14c-.81,0-1.63,0-2.44,0-2.15,0-3.15,1-3.2,3.19q0,1.62,0,3.24c0,2.16,1,3.21,3.16,3.27,1.24,0,2.49,0,3.73,0,3.56,0,4.16-.68,4.24-4.29C55.17,41.68,54.76,40.91,49.57,41.14Zm1.3,6.92a9,9,0,0,0-1.47,0c-2.67,0-2.59,0-2.68-2.72,0-1.27.37-1.65,1.55-1.47a9.4,9.4,0,0,0,1.3,0c2.75,0,2.69,0,2.77,2.67C52.37,47.69,52.15,48.28,50.87,48.06Z"/><path class="cls-1" d="M41.18,43.83a2.7,2.7,0,0,0-2.87-2.68c-1.35,0-2.7,0-4.06,0-3.53,0-4.16.63-4.16,4.13,0,5.43.15,5.58,5.53,5.58.87,0,1.73,0,2.6,0a2.81,2.81,0,0,0,3-3A36.48,36.48,0,0,0,41.18,43.83ZM35.42,48c-.76-.14-2.1.46-2.45-.28-.43-.94-.13-2.22-.14-3.36,0-.54.41-.54.8-.54h2.44c2.31,0,2.31,0,2.31,2.29C38.38,48,38.38,48,35.42,48Z"/><path class="cls-1" d="M49.57,41.14c-.81,0-1.63,0-2.44,0-2.15,0-3.15,1-3.2,3.19q0,1.62,0,3.24c0,2.16,1,3.21,3.16,3.27,1.24,0,2.49,0,3.73,0,3.56,0,4.16-.68,4.24-4.29C55.17,41.68,54.76,40.91,49.57,41.14Zm1.3,6.92a9,9,0,0,0-1.47,0c-2.67,0-2.59,0-2.68-2.72,0-1.27.37-1.65,1.55-1.47a9.4,9.4,0,0,0,1.3,0c2.75,0,2.69,0,2.77,2.67C52.37,47.69,52.15,48.28,50.87,48.06Z"/></svg>