<svg id="Layer_1" data-name="Layer 1" xmlns="http://www.w3.org/2000/svg" viewBox="0 0 85 85"><defs><style>.cls-1{fill:#fda428;}</style></defs><path class="cls-1" d="M63.84,23c0-6,0-12,0-18,0-1-.16-1.28-1.21-1.25q-5.4.11-10.8,0c-1.08,0-1.4.2-1.39,1.34,0,12.06,0,24.11,0,36.17,0,.4.28,1-.25,1.16a5.29,5.29,0,0,1-2.24,0c-.37-.09-.16-.72-.16-1.1,0-7.16,0-14.32,0-21.49,0-1.08-.22-1.42-1.36-1.38-2.71.1-5.42.08-8.14,0-1,0-1.24.21-1.23,1.22.05,7.21,0,14.41.06,21.62,0,1.17-.46,1.24-1.37,1.23s-1.38,0-1.37-1.22c.06-9.7,0-19.4.06-29.1a2.17,2.17,0,0,0-.92-1.89C32,9,30.38,7.74,28.87,6.37c-.76-.69-1.28-.77-2.08,0-1.55,1.41-3.17,2.73-4.81,4a2.13,2.13,0,0,0-.87,1.91q0,14.42,0,28.83c0,.46.28,1.19-.2,1.34a4.88,4.88,0,0,1-2.25,0c-.44-.09-.2-.7-.2-1.07,0-5.43,0-10.86,0-16.29,0-1-.25-1.33-1.29-1.29-2.36.08-4.72.06-7.07,0-.84,0-1,.21-1,1,0,5.52,0,11,.06,16.55,0,1.33-.65,1.1-1.44,1.14s-1.31,0-1.3-1.16c.07-6.05,0-12.1,0-18.15,0-1.72.35-2.05,2.13-2.05,3,0,6,0,8.94,0,.76,0,1-.2,1-.95-.05-3,0-6,0-9.08a2.37,2.37,0,0,1,.93-2.07q3.63-2.93,7.17-6a1.68,1.68,0,0,1,2.56,0q3.49,3,7.07,5.89a2.42,2.42,0,0,1,1,2.17c-.06,1.24,0,2.49,0,3.74,0,.66.12.92.86.91,3-.05,6-.06,8.94,0,.84,0,.91-.33.9-1,0-3.87,0-7.74,0-11.61,0-1.75.34-2.08,2.11-2.08q7.27,0,14.55,0c1.65,0,2,.37,2,2,0,6,0,11.92,0,17.88,0,1.28.39,1.5,1.54,1.47,2.89-.08,5.78,0,8.67,0,1.41,0,1.83.42,1.83,1.82,0,5.74,0,11.48,0,17.22,0,1.36-.81.91-1.46,1s-1.29.09-1.27-1c.07-5,0-10,.06-14.95,0-1.24-.37-1.44-1.47-1.4-2.13.09-4.27.09-6.4,0-1.15,0-1.57.19-1.54,1.47.09,4.89,0,9.78.07,14.68,0,1.12-.38,1.29-1.34,1.25s-1.42,0-1.4-1.2C63.88,35.22,63.84,29.12,63.84,23Z"/><path class="cls-1" d="M62,78.79a3,3,0,0,1-2.57-1.65c-1.45-2-1.45-2-3.75-1.1a31.84,31.84,0,0,1-5.72,1.7c-.62.11-.8.37-.77,1a23.72,23.72,0,0,1,0,2.53,2.61,2.61,0,0,1-2.65,2.61q-4,.08-8,0a2.63,2.63,0,0,1-2.68-2.72c-.06-1,.44-2.37-.21-3.08s-1.88-.6-2.86-.86A26.3,26.3,0,0,1,28,75.47c-.79-.39-1.16-.23-1.58.47a14.69,14.69,0,0,1-1.34,1.82,2.51,2.51,0,0,1-3.55.6q-3.4-2.34-6.68-4.85a2.56,2.56,0,0,1-.55-3.57c.58-1,1.91-1.77,1.7-2.85s-1.36-1.69-2-2.58a39,39,0,0,1-2.49-3.77c-.47-.85-1-1-1.77-.63-.61.26-1.25.44-1.88.64a2.56,2.56,0,0,1-3.38-1.53c-.91-2.54-1.71-5.12-2.56-7.68-.36-1.09.67-.78,1.09-1,.86-.5,1.35-.36,1.65.75.57,2.08,1.39,4.11,2,6.18.21.73.43.83,1.09.55a19,19,0,0,1,2-.64,2.64,2.64,0,0,1,3.58,1.37A35.4,35.4,0,0,0,18,65.17a2.69,2.69,0,0,1,.2,3.85c-.55.8-1.61,1.7-1.49,2.38s1.41,1.21,2.2,1.78c1.14.84,2.32,1.64,3.44,2.52.48.38.71.29,1-.16.47-.7,1-1.39,1.48-2.05a2.56,2.56,0,0,1,3.32-.87,40.44,40.44,0,0,0,8.19,2.67A2.6,2.6,0,0,1,38.46,78c.06,1-.43,2.35.2,2.94s2,.17,3.08.2,2.41-.06,3.6,0c1,.08,1.28-.31,1.13-1.2a2.43,2.43,0,0,1,0-.27c0-3.74.05-3.85,3.66-4.78a38.34,38.34,0,0,0,6.26-2.18c1.64-.74,2.71-.43,3.85,1,.61.75,1,2.1,1.81,2.14s1.59-1,2.38-1.55c1.08-.77,2.12-1.62,3.24-2.32.75-.46.66-.79.19-1.41-2.43-3.22-2.76-3.49.26-6.85A29.43,29.43,0,0,0,71.46,59c1.07-1.8,2-2.14,4-1.54.83.25,1.84.88,2.46.62s.65-1.54.93-2.37c.52-1.55,1.12-3.08,1.53-4.66.31-1.18.93-.77,1.58-.52s1.46.11,1,1.3c-.86,2.32-1.55,4.71-2.35,7-.63,1.85-1.87,2.43-3.75,1.83-2.71-.87-2.71-.87-4.28,1.56a27.15,27.15,0,0,1-3.25,4.21c-.53.56-.61,1-.12,1.55a17.79,17.79,0,0,1,1.4,2,2.5,2.5,0,0,1-.52,3.56c-2.22,1.7-4.51,3.31-6.78,5A2,2,0,0,1,62,78.79Z"/><path class="cls-1" d="M42.48,47.83q-20.08,0-40.17,0c-.39,0-1,.3-1.15-.26a9.34,9.34,0,0,1,0-2.24c0-.06.3-.13.46-.15.31,0,.62,0,.94,0h79.8c.47,0,1.22-.26,1.36.15a4.67,4.67,0,0,1,.06,2.23c-.11.56-.76.26-1.15.26q-12.21,0-24.42,0Z"/><path class="cls-1" d="M43.19,70.51c-12.54,0-22.93-7.23-27-18.35-.14-.39-1.06-1.23.28-1.47.83-.15,1.66-1.12,2.26.53a24.88,24.88,0,0,0,26.61,16.4c10.26-1.26,17.23-6.91,21-16.52.61-1.59,1.43-.51,2.2-.42,1.22.14.5.94.35,1.34-4,10.13-11.31,16.17-22,18.17A29.56,29.56,0,0,1,43.19,70.51Z"/><path class="cls-1" d="M27.83,13.13a19.39,19.39,0,0,0,2.53,0c1.29-.18,1.52.37,1.48,1.52,0,.87-.15,1.24-1.14,1.19a52.07,52.07,0,0,0-5.86,0c-1.3.08-1-.68-1.05-1.4S23.7,13,24.9,13.1A22,22,0,0,0,27.83,13.13Z"/><path class="cls-1" d="M27.89,19.8c1,0,2.05.06,3.07,0,1.34-.1.76.88.83,1.44s.27,1.32-.88,1.27c-2.09-.1-4.18-.08-6.27,0-1.34.05-.76-.89-.83-1.45s-.27-1.36.88-1.26S26.83,19.8,27.89,19.8Z"/><path class="cls-1" d="M54.54,7.82c1.25-.36,1.27.34,1.33,1.34.07,1.17-.37,1.31-1.41,1.35s-1.34-.37-1.34-1.42S53.41,7.53,54.54,7.82Z"/><path class="cls-1" d="M61.12,9.14c.4,1.37-.41,1.28-1.35,1.36-1.23.1-1.26-.45-1.32-1.44-.07-1.23.45-1.28,1.44-1.31C61,7.72,61.44,8.09,61.12,9.14Z"/><path class="cls-1" d="M55.79,15.6c.16,1,.11,1.69-1.19,1.57-.89-.09-1.61,0-1.48-1.26.09-.89,0-1.67,1.26-1.47C55.17,14.57,56.3,14.15,55.79,15.6Z"/><path class="cls-1" d="M59.76,17.1c-1.32.39-1.22-.42-1.3-1.36-.11-1.24.44-1.26,1.43-1.32,1.23-.08,1.28.45,1.32,1.44C61.25,17,60.82,17.35,59.76,17.1Z"/><path class="cls-1" d="M54.65,21.16c1.44-.42,1.08.64,1.2,1.43.2,1.34-.62,1.15-1.48,1.25-1.34.15-1.15-.63-1.24-1.49C53,21,53.72,21,54.65,21.16Z"/><path class="cls-1" d="M61.13,22.49c.36,1.24-.3,1.31-1.32,1.36s-1.34-.34-1.36-1.4.33-1.37,1.4-1.36S61.45,21.34,61.13,22.49Z"/></svg>