<svg id="Layer_1" data-name="Layer 1" xmlns="http://www.w3.org/2000/svg" viewBox="0 0 85 85"><defs><style>.cls-1{fill:#fda428;}</style></defs><path class="cls-1" d="M34.56,27.89c-.58-.82-1.36-.68-2.12-.13a16.5,16.5,0,0,0-7.17,12.59c-.08,1,0,2,1.2,2.11s1.45-.78,1.54-1.8a13.69,13.69,0,0,1,6-10.6C34.79,29.49,35.2,28.77,34.56,27.89Zm0,0c-.58-.82-1.36-.68-2.12-.13a16.5,16.5,0,0,0-7.17,12.59c-.08,1,0,2,1.2,2.11s1.45-.78,1.54-1.8a13.69,13.69,0,0,1,6-10.6C34.79,29.49,35.2,28.77,34.56,27.89Zm0,0c-.58-.82-1.36-.68-2.12-.13a16.5,16.5,0,0,0-7.17,12.59c-.08,1,0,2,1.2,2.11s1.45-.78,1.54-1.8a13.69,13.69,0,0,1,6-10.6C34.79,29.49,35.2,28.77,34.56,27.89Zm0,0c-.58-.82-1.36-.68-2.12-.13a16.5,16.5,0,0,0-7.17,12.59c-.08,1,0,2,1.2,2.11s1.45-.78,1.54-1.8a13.69,13.69,0,0,1,6-10.6C34.79,29.49,35.2,28.77,34.56,27.89Zm0,0c-.58-.82-1.36-.68-2.12-.13a16.5,16.5,0,0,0-7.17,12.59c-.08,1,0,2,1.2,2.11s1.45-.78,1.54-1.8a13.69,13.69,0,0,1,6-10.6C34.79,29.49,35.2,28.77,34.56,27.89Zm0,0c-.58-.82-1.36-.68-2.12-.13a16.5,16.5,0,0,0-7.17,12.59c-.08,1,0,2,1.2,2.11s1.45-.78,1.54-1.8a13.69,13.69,0,0,1,6-10.6C34.79,29.49,35.2,28.77,34.56,27.89Zm0,0c-.58-.82-1.36-.68-2.12-.13a16.5,16.5,0,0,0-7.17,12.59c-.08,1,0,2,1.2,2.11s1.45-.78,1.54-1.8a13.69,13.69,0,0,1,6-10.6C34.79,29.49,35.2,28.77,34.56,27.89Zm0,0c-.58-.82-1.36-.68-2.12-.13a16.5,16.5,0,0,0-7.17,12.59c-.08,1,0,2,1.2,2.11s1.45-.78,1.54-1.8a13.69,13.69,0,0,1,6-10.6C34.79,29.49,35.2,28.77,34.56,27.89Zm0,0c-.58-.82-1.36-.68-2.12-.13a16.5,16.5,0,0,0-7.17,12.59c-.08,1,0,2,1.2,2.11s1.45-.78,1.54-1.8a13.69,13.69,0,0,1,6-10.6C34.79,29.49,35.2,28.77,34.56,27.89Zm0,0c-.58-.82-1.36-.68-2.12-.13a16.5,16.5,0,0,0-7.17,12.59c-.08,1,0,2,1.2,2.11s1.45-.78,1.54-1.8a13.69,13.69,0,0,1,6-10.6C34.79,29.49,35.2,28.77,34.56,27.89Zm0,0c-.58-.82-1.36-.68-2.12-.13a16.5,16.5,0,0,0-7.17,12.59c-.08,1,0,2,1.2,2.11s1.45-.78,1.54-1.8a13.69,13.69,0,0,1,6-10.6C34.79,29.49,35.2,28.77,34.56,27.89Zm0,0c-.58-.82-1.36-.68-2.12-.13a16.5,16.5,0,0,0-7.17,12.59c-.08,1,0,2,1.2,2.11s1.45-.78,1.54-1.8a13.69,13.69,0,0,1,6-10.6C34.79,29.49,35.2,28.77,34.56,27.89ZM50.47,46A2,2,0,0,0,51,44.85c.16-.9.69-1,1.49-1,4.8,0,9.61,0,14.41,0a1.43,1.43,0,0,1,1.61,1.1,6.76,6.76,0,0,0,8.4,4.16,6.88,6.88,0,0,0-.74-13.38,6.75,6.75,0,0,0-7.57,4.18,1.7,1.7,0,0,1-2,1.28c-2.27-.08-4.53,0-6.8,0-2.48,0-5,0-7.44,0-.4,0-.82.14-1.16-.33-2.18-3.06-2.21-3.58-.36-7a20.05,20.05,0,0,0,1.44-2.7c.72-2,2-2.73,4.15-2.52,1.34.14,2.1.28,2.69,1.74A6.69,6.69,0,0,0,67,34a6.92,6.92,0,0,0-.15-13.45,6.75,6.75,0,0,0-7.75,3.84c-.52,1.32-1.16,1.72-2.43,1.55a7.12,7.12,0,0,0-1.46,0c-.8.09-1-.28-1-1,0-1.94.1-3.89,0-5.82a5.17,5.17,0,0,1,1.51-3.83A8,8,0,0,1,63.52,12c1.2.16,1.93.22,2.45,1.56a6.73,6.73,0,0,0,7.56,3.93,6.93,6.93,0,0,0,.55-13.44c-3-.86-6.59.41-7.83,3.31-.78,1.81-1.78,2.24-3.48,2a14.58,14.58,0,0,0-1.62,0c-1.84,0-3.58-.11-5,1.55-.75.86-1.85-.27-2.81-.41-.74-.11-.47-.74-.47-1.17,0-1.78,0-3.56,0-5.34a2.71,2.71,0,0,0-2.92-2.93q-5.34,0-10.68,0A2.71,2.71,0,0,0,36.3,4c0,1.73-.06,3.45,0,5.18,0,.89-.18,1.34-1.11,1.57a24.59,24.59,0,0,0-6.54,2.69,1.19,1.19,0,0,1-1.76-.29c-1.18-1.26-2.41-2.47-3.66-3.66-1.45-1.4-2.81-1.41-4.24,0q-3.77,3.69-7.44,7.44a2.72,2.72,0,0,0,0,4.25Q13.4,23.12,15.33,25a1,1,0,0,1,.27,1.51,27.13,27.13,0,0,0-2.85,6.83,1,1,0,0,1-1.22.91c-1.73,0-3.45,0-5.18,0-2.16,0-3.18,1-3.2,3.18,0,3.39,0,6.79,0,10.19,0,2.22,1,3.2,3.31,3.23,1.62,0,3.24,0,4.86,0,.78,0,1.23.1,1.47,1a26.59,26.59,0,0,0,2.78,6.68,1,1,0,0,1-.2,1.52c-1.26,1.17-2.46,2.41-3.67,3.65-1.52,1.55-1.55,3-.06,4.48q3.64,3.69,7.33,7.32c1.48,1.46,2.85,1.43,4.37,0,1.23-1.2,2.47-2.41,3.65-3.67a1.11,1.11,0,0,1,1.63-.22,27.47,27.47,0,0,0,6.69,2.74,1.12,1.12,0,0,1,1,1.32c-.08,1.73,0,3.46,0,5.18,0,2.06,1,3.13,3,3.14q5.27,0,10.52,0c1.93,0,2.94-1.09,3-3,0-1.67,0-3.34,0-5,0-.52-.34-1.3.58-1.41s2-1.36,3.06-.11a3.77,3.77,0,0,0,3.32,1.3c1.29-.06,2.6,0,3.88,0A1.84,1.84,0,0,1,65.91,77a6.73,6.73,0,0,0,7.65,4,6.89,6.89,0,0,0,.78-13.3c-3-1-6.59,0-7.82,2.83-1,2.43-2.58,2.5-4.58,2.36a12.56,12.56,0,0,0-1.94,0,2,2,0,0,1-1.71-.68c-1.12-1.17-2.27-2.31-3.43-3.43a2,2,0,0,1-.66-1.56c0-2.38,0-4.75,0-7.12,0-.36-.14-.94.3-1a24.73,24.73,0,0,1,3.55-.06c.9,0,.67,1,.92,1.5A6.92,6.92,0,1,0,66.86,51,6.79,6.79,0,0,0,59,54.91c-.46,1.13-1,1.65-2.19,1.44a4.7,4.7,0,0,0-1.45,0,2.1,2.1,0,0,1-2.51-1.42,45.12,45.12,0,0,0-2.44-4.55C49.52,48.88,48.67,47.47,50.47,46ZM75,38.34a4.16,4.16,0,1,1-4.2,4.2A4.14,4.14,0,0,1,75,38.34ZM65.31,23.15a4.16,4.16,0,1,1-4.14,4.09A4.14,4.14,0,0,1,65.31,23.15ZM72.07,6.59a4.21,4.21,0,0,1,4.27,4.16,4.15,4.15,0,0,1-8.3.06A4.18,4.18,0,0,1,72.07,6.59Zm.18,63.51a4.16,4.16,0,0,1,0,8.31A4.17,4.17,0,0,1,68,74.32,4.22,4.22,0,0,1,72.25,70.1ZM65.4,53.54a4.16,4.16,0,1,1-4.23,4A4.13,4.13,0,0,1,65.4,53.54ZM52.72,70.6a.76.76,0,0,1-.31,1.24c-2.3.76-2.3,1.14-2.3,4,0,1.4,0,2.81,0,4.21,0,.87-.3,1.1-1.13,1.09-3,0-5.93,0-8.9,0-.87,0-1.11-.3-1.09-1.12.05-2,0-4,0-6A1.77,1.77,0,0,0,37.48,72a27.26,27.26,0,0,1-8.75-3.6,1.88,1.88,0,0,0-2.7.42c-1.37,1.44-2.84,2.8-4.21,4.25-.55.58-.87.53-1.41,0q-3.15-3.25-6.41-6.4c-.65-.63-.49-1,.07-1.49,1.44-1.37,2.81-2.83,4.25-4.21a1.76,1.76,0,0,0,.39-2.55A28.16,28.16,0,0,1,15,49.51,1.69,1.69,0,0,0,13.1,48c-2,0-4.1,0-6.15,0-.84,0-1.09-.21-1.08-1.07,0-3,.07-5.93,0-8.9,0-1,.39-1.11,1.22-1.09,2,.05,4,0,6,0A1.69,1.69,0,0,0,15,35.51a28.86,28.86,0,0,1,3.77-9,1.62,1.62,0,0,0-.33-2.29c-1.51-1.47-3-3-4.48-4.45-.57-.54-.52-.84,0-1.37q3.26-3.15,6.41-6.4c.64-.67,1-.5,1.52.07,1.38,1.44,2.84,2.8,4.21,4.25a1.8,1.8,0,0,0,2.57.33A27.63,27.63,0,0,1,37.46,13,1.77,1.77,0,0,0,39,11C39,9,39.07,7.08,39,5.14c0-.94.19-1.34,1.23-1.32,2.86.07,5.72.08,8.58,0,1.15,0,1.34.42,1.31,1.41-.07,1.62.07,3.24-.05,4.85-.13,1.78.32,2.95,2.31,3.08a2,2,0,0,1,.67.21.36.36,0,0,1,.1.6,4.66,4.66,0,0,0-1.72,4.13c.08.9-.71.28-1.06.21A24.59,24.59,0,0,0,29.83,22.5,24.82,24.82,0,0,0,41.69,67.18a26.14,26.14,0,0,0,8.82-.54c.42-.09,1.09-.49,1,.41A4.11,4.11,0,0,0,52.72,70.6ZM48.17,33.06c-.78,1.82-1.65,2.87-4.07,2.7-3.65-.25-6.63,3.34-6.45,7a6.71,6.71,0,0,0,7.18,6.51,2.35,2.35,0,0,1,2.78,1.59,21.66,21.66,0,0,0,2.07,3.82c1.71,2.38,2,5,1.85,7.8a1.17,1.17,0,0,1-1.06,1.29,20.33,20.33,0,0,1-5.53.78,22.09,22.09,0,0,1-3-44,22.58,22.58,0,0,1,8.34.59,1.46,1.46,0,0,1,1.3,1.61,11.26,11.26,0,0,1-1.91,7.62A13.44,13.44,0,0,0,48.17,33.06Zm.5,9.49a4.11,4.11,0,1,1-4-4.21A4.13,4.13,0,0,1,48.67,42.55ZM32.44,27.76a16.5,16.5,0,0,0-7.17,12.59c-.08,1,0,2,1.2,2.11s1.45-.78,1.54-1.8a13.69,13.69,0,0,1,6-10.6c.82-.57,1.23-1.29.59-2.17S33.2,27.21,32.44,27.76Zm2.12.13c-.58-.82-1.36-.68-2.12-.13a16.5,16.5,0,0,0-7.17,12.59c-.08,1,0,2,1.2,2.11s1.45-.78,1.54-1.8a13.69,13.69,0,0,1,6-10.6C34.79,29.49,35.2,28.77,34.56,27.89Zm0,0c-.58-.82-1.36-.68-2.12-.13a16.5,16.5,0,0,0-7.17,12.59c-.08,1,0,2,1.2,2.11s1.45-.78,1.54-1.8a13.69,13.69,0,0,1,6-10.6C34.79,29.49,35.2,28.77,34.56,27.89Zm0,0c-.58-.82-1.36-.68-2.12-.13a16.5,16.5,0,0,0-7.17,12.59c-.08,1,0,2,1.2,2.11s1.45-.78,1.54-1.8a13.69,13.69,0,0,1,6-10.6C34.79,29.49,35.2,28.77,34.56,27.89Zm0,0c-.58-.82-1.36-.68-2.12-.13a16.5,16.5,0,0,0-7.17,12.59c-.08,1,0,2,1.2,2.11s1.45-.78,1.54-1.8a13.69,13.69,0,0,1,6-10.6C34.79,29.49,35.2,28.77,34.56,27.89Zm0,0c-.58-.82-1.36-.68-2.12-.13a16.5,16.5,0,0,0-7.17,12.59c-.08,1,0,2,1.2,2.11s1.45-.78,1.54-1.8a13.69,13.69,0,0,1,6-10.6C34.79,29.49,35.2,28.77,34.56,27.89Zm0,0c-.58-.82-1.36-.68-2.12-.13a16.5,16.5,0,0,0-7.17,12.59c-.08,1,0,2,1.2,2.11s1.45-.78,1.54-1.8a13.69,13.69,0,0,1,6-10.6C34.79,29.49,35.2,28.77,34.56,27.89Zm0,0c-.58-.82-1.36-.68-2.12-.13a16.5,16.5,0,0,0-7.17,12.59c-.08,1,0,2,1.2,2.11s1.45-.78,1.54-1.8a13.69,13.69,0,0,1,6-10.6C34.79,29.49,35.2,28.77,34.56,27.89Zm0,0c-.58-.82-1.36-.68-2.12-.13a16.5,16.5,0,0,0-7.17,12.59c-.08,1,0,2,1.2,2.11s1.45-.78,1.54-1.8a13.69,13.69,0,0,1,6-10.6C34.79,29.49,35.2,28.77,34.56,27.89Zm0,0c-.58-.82-1.36-.68-2.12-.13a16.5,16.5,0,0,0-7.17,12.59c-.08,1,0,2,1.2,2.11s1.45-.78,1.54-1.8a13.69,13.69,0,0,1,6-10.6C34.79,29.49,35.2,28.77,34.56,27.89Zm0,0c-.58-.82-1.36-.68-2.12-.13a16.5,16.5,0,0,0-7.17,12.59c-.08,1,0,2,1.2,2.11s1.45-.78,1.54-1.8a13.69,13.69,0,0,1,6-10.6C34.79,29.49,35.2,28.77,34.56,27.89Z"/><path class="cls-1" d="M34,30.06a13.69,13.69,0,0,0-6,10.6c-.09,1-.33,1.92-1.54,1.8s-1.28-1.11-1.2-2.11a16.5,16.5,0,0,1,7.17-12.59c.76-.55,1.54-.69,2.12.13S34.79,29.49,34,30.06Z"/><path class="cls-1" d="M34,30.06a13.69,13.69,0,0,0-6,10.6c-.09,1-.33,1.92-1.54,1.8s-1.28-1.11-1.2-2.11a16.5,16.5,0,0,1,7.17-12.59c.76-.55,1.54-.69,2.12.13S34.79,29.49,34,30.06Z"/></svg>